<?xml version="1.0" encoding="utf-8"?>
<!-- Generator: Adobe Illustrator 16.0.0, SVG Export Plug-In . SVG Version: 6.00 Build 0)  -->
<!DOCTYPE svg PUBLIC "-//W3C//DTD SVG 1.1//EN" "http://www.w3.org/Graphics/SVG/1.1/DTD/svg11.dtd">
<svg version="1.1" id="Layer_1" xmlns="http://www.w3.org/2000/svg" xmlns:xlink="http://www.w3.org/1999/xlink" x="0px" y="0px"
	 width="204.2px" height="85.4px" viewBox="0 0 204.2 85.4" enable-background="new 0 0 204.2 85.4" xml:space="preserve">
<polygon fill="#00C6FF" points="85.5,0 93,12.5 79.9,25.1 102.5,25.1 104.6,20 92.2,20 99.7,12.5 95.3,5 115.9,5 97.8,47.8 
	104,47.8 124.2,0 "/>
<rect x="163" y="59.7" fill="#232F49" width="3.9" height="3.8"/>
<rect x="163.1" y="66.1" fill="#232F49" width="3.6" height="18.9"/>
<polygon fill="#232F49" points="157,59.7 152.6,79.4 152.4,79.4 147.8,66.1 144.6,66.1 139.4,79.4 139.2,79.4 135.7,59.7 
	131.9,59.7 136.7,85 140.3,85 145.9,71 146.1,71 151,85 154.6,85 160.7,59.7 "/>
<path fill="#232F49" d="M107.4,82.2c-3.5,0-5.8-2.7-5.8-6.7c0-3.7,2.1-6.8,5.4-6.8c3.8,0,4.9,3.2,5,5.2h-6.2l-1.2,2.9h11
	c0.1-0.7,0.1-1,0.1-1.3c0-5.4-2.8-9.8-8.7-9.8c-5.1,0-9.1,4.2-9.1,9.9c0,5.9,3.8,9.8,9.2,9.8c3.2,0,6.1-1.2,7.8-3.3l-2.2-2.1
	C111.3,81.4,109.4,82.2,107.4,82.2"/>
<path fill="#232F49" d="M93.3,65.7c0-2.3,1.1-3.7,3.3-3.7c0.8,0,2.1,0.2,3.1,0.6l1.1-2.6c-1.4-0.7-3.1-1-4.4-1
	c-3.6,0-6.8,1.8-6.8,6.7v0.6h-2.4v3h2.4V85h3.6V69.3h3.6l1.2-3h-4.9V65.7z"/>
<path fill="#232F49" d="M61.1,65.7c-2.4,0-4.5,0.9-5.6,2.8h-0.2v-2.4h-3.5V85h3.6V74.8c0-3.7,1.9-6,4.9-6c2.8,0,4.5,1.5,4.5,5V85
	h3.6V73.1C68.3,68.3,65.5,65.7,61.1,65.7"/>
<path fill="#232F49" d="M39.1,65.7c-2.1,0-4.1,0.3-5.6,0.9l0.6,2.9c1.7-0.5,3.1-0.7,4.5-0.7c3,0,5.5,1.4,5.5,4.5v0.5
	c-1-0.4-2.5-0.9-4.7-0.9c-4.9,0-8.1,2.5-8.1,6.5c0,4.2,3.1,6,6.7,6c2.9,0,4.9-1.2,6-2.6h0.2V85h3.5V73.2
	C47.6,68,44.2,65.7,39.1,65.7 M44.1,77.7c0,2.8-2.3,4.6-5.6,4.6c-1.9,0-3.6-0.9-3.6-3.1c0-2.1,1.7-3.5,4.4-3.5
	c2.4,0,3.9,0.4,4.8,1.1V77.7z"/>
<polygon fill="#232F49" points="0,59.7 0,63.1 8,63.1 8,85 11.8,85 11.8,63.1 19.8,63.1 19.8,59.7 "/>
<path fill="#232F49" d="M31.5,66.4c-1.1-0.5-2.4-0.5-3.1-0.5c-2,0-3.9,0.8-5,2.2h-0.2v-2.1h-3.5V85h3.6V74.7c0-4,1.9-5.6,4.8-5.6
	c1,0,1.6,0.1,2.5,0.3L31.5,66.4z"/>
<path fill="#232F49" d="M130.9,66.5c-1.1-0.5-2.4-0.6-3.1-0.6c-2,0-4.2,0.8-5.2,2.2h-0.2v-2.1H119V85h3.6V74.7c0-4,2.2-5.6,5-5.6
	c1,0,1.6,0.1,2.5,0.3L130.9,66.5z"/>
<path fill="#232F49" d="M196,82.2c-3.5,0-5.8-2.7-5.8-6.7c0-3.7,2.1-6.8,5.4-6.8c3.8,0,4.9,3.2,5,5.2h-6.2l-1.2,2.9h11
	c0.1-0.7,0.1-1,0.1-1.3c0-5.4-2.8-9.8-8.7-9.8c-5.1,0-9.1,4.2-9.1,9.9c0,5.9,3.8,9.8,9.2,9.8c3.2,0,6.1-1.2,7.8-3.3l-2.2-2.1
	C199.9,81.4,198,82.2,196,82.2"/>
<path fill="#232F49" d="M79.2,74.1c-2.8-0.4-4.4-0.9-4.4-2.7c0-1.7,1.6-2.7,3.6-2.7c1.6,0,3.7,0.6,5,1.6l1.7-2.6
	c-1.6-1.3-4.2-2-6.7-2c-4.2,0-7.2,2.5-7.2,5.8c0,3.8,2.4,5,6.5,5.7c2.3,0.4,4.3,0.6,4.3,2.6c0,1.7-1.6,2.6-3.8,2.6
	c-2.1,0-4-0.6-5.8-2L71,83.1c1.4,1.2,4.2,2.2,7.3,2.2c4.3,0,7.5-2.5,7.5-5.9C85.7,75.4,82.5,74.5,79.2,74.1"/>
<path fill="#232F49" d="M178,74.1c-2.8-0.4-4.4-0.9-4.4-2.7c0-1.7,1.6-2.7,3.6-2.7c1.6,0,3.7,0.6,5,1.6l1.7-2.6
	c-1.6-1.3-4.2-2-6.7-2c-4.2,0-7.2,2.5-7.2,5.8c0,3.8,2.4,5,6.5,5.7c2.3,0.4,4.3,0.6,4.3,2.6c0,1.7-1.6,2.6-3.8,2.6
	c-2.1,0-4-0.6-5.8-2l-1.6,2.8c1.4,1.2,4.2,2.2,7.3,2.2c4.3,0,7.5-2.5,7.5-5.9C184.5,75.4,181.3,74.5,178,74.1"/>
<g>
</g>
<g>
</g>
<g>
</g>
<g>
</g>
<g>
</g>
<g>
</g>
<g>
</g>
<g>
</g>
<g>
</g>
<g>
</g>
<g>
</g>
<g>
</g>
<g>
</g>
<g>
</g>
<g>
</g>
</svg>
